<svg xmlns="http://www.w3.org/2000/svg" width="28" height="28" fill="none" viewBox="0 0 28 28">
    <path fill="#4C9A2A" d="M23.333 18.083l-4.07 4.084-2.848-2.859 1.22-1.225 1.629 1.634 2.848-2.859 1.221 1.225zm-8.546 1.634c0-1.225.407-2.287 1.14-3.185l-2.768-1.715v-4.9h1.22v4.246l2.524 1.552c.814-.572 1.71-.898 2.768-.898.814 0 1.628.245 2.279.571.081-.49.162-.898.162-1.388 0-4.492-3.662-8.167-8.14-8.167-4.476 0-8.139 3.675-8.139 8.167s3.663 8.167 8.14 8.167c.488 0 .977-.082 1.384-.164-.326-.653-.57-1.47-.57-2.286z"/>
</svg>
