<svg xmlns="http://www.w3.org/2000/svg" width="28" height="28" fill="none" viewBox="0 0 28 28">
    <path fill="#4C9A2A" d="M14 4.667c1.083 0 2.122.437 2.887 1.215a4.182 4.182 0 0 1 1.196 2.933c0 1.1-.43 2.155-1.196 2.933A4.051 4.051 0 0 1 14 12.963a4.051 4.051 0 0 1-2.887-1.215 4.182 4.182 0 0 1-1.196-2.933c0-1.1.43-2.155 1.196-2.933A4.05 4.05 0 0 1 14 4.667zm4.083 10.93c0 1.1-.285 3.66-2.235 6.523l-.827-5.009.96-1.95A17.355 17.355 0 0 0 14 15.038c-.684 0-1.348.052-1.98.125l.96 1.95-.828 5.008c-1.95-2.862-2.235-5.424-2.235-6.523-2.44.726-4.084 2.033-4.084 3.588v4.148h16.334v-4.148c0-1.555-1.634-2.862-4.084-3.588z"/>
</svg>
